<svg width="108" height="19" viewBox="0 0 108 19" fill="none" xmlns="http://www.w3.org/2000/svg">
<path d="M11.82 11.88H5.26L3.92 15H0.78L7.26 0.899999H9.76L16.24 15H13.16L11.82 11.88ZM10.8 9.52L8.54 4.24L6.28 9.52H10.8ZM23.2595 4.94C24.0995 4.94 24.8462 5.16 25.4995 5.6C26.1662 6.02667 26.6795 6.63333 27.0395 7.42C27.4129 8.19333 27.5995 9.08667 27.5995 10.1C27.5995 11.1133 27.4129 12.0067 27.0395 12.78C26.6795 13.54 26.1729 14.1267 25.5195 14.54C24.8662 14.9533 24.1129 15.16 23.2595 15.16C22.5929 15.16 21.9862 15.0267 21.4395 14.76C20.9062 14.48 20.4929 14.0933 20.1995 13.6V18.6H17.1795V5.18H20.1595V6.56C20.4529 6.05333 20.8729 5.66 21.4195 5.38C21.9662 5.08667 22.5795 4.94 23.2595 4.94ZM22.3795 12.86C23.0862 12.86 23.6329 12.6267 24.0195 12.16C24.4062 11.68 24.5995 10.9933 24.5995 10.1C24.5995 9.19333 24.4062 8.49333 24.0195 8C23.6329 7.49333 23.0862 7.24 22.3795 7.24C21.6729 7.24 21.1262 7.48667 20.7395 7.98C20.3529 8.46 20.1595 9.15333 20.1595 10.06C20.1595 10.9533 20.3529 11.6467 20.7395 12.14C21.1262 12.62 21.6729 12.86 22.3795 12.86ZM35.5252 4.94C36.3652 4.94 37.1118 5.16 37.7652 5.6C38.4318 6.02667 38.9452 6.63333 39.3052 7.42C39.6785 8.19333 39.8652 9.08667 39.8652 10.1C39.8652 11.1133 39.6785 12.0067 39.3052 12.78C38.9452 13.54 38.4385 14.1267 37.7852 14.54C37.1318 14.9533 36.3785 15.16 35.5252 15.16C34.8585 15.16 34.2518 15.0267 33.7052 14.76C33.1718 14.48 32.7585 14.0933 32.4652 13.6V18.6H29.4452V5.18H32.4252V6.56C32.7185 6.05333 33.1385 5.66 33.6852 5.38C34.2318 5.08667 34.8452 4.94 35.5252 4.94ZM34.6452 12.86C35.3518 12.86 35.8985 12.6267 36.2852 12.16C36.6718 11.68 36.8652 10.9933 36.8652 10.1C36.8652 9.19333 36.6718 8.49333 36.2852 8C35.8985 7.49333 35.3518 7.24 34.6452 7.24C33.9385 7.24 33.3918 7.48667 33.0052 7.98C32.6185 8.46 32.4252 9.15333 32.4252 10.06C32.4252 10.9533 32.6185 11.6467 33.0052 12.14C33.3918 12.62 33.9385 12.86 34.6452 12.86ZM46.8908 15.18C45.8241 15.18 44.7974 15.04 43.8108 14.76C42.8241 14.4667 42.0041 14.0667 41.3508 13.56L42.3508 11.34C43.7108 12.2867 45.2374 12.76 46.9308 12.76C47.8108 12.76 48.4841 12.62 48.9508 12.34C49.4308 12.0467 49.6708 11.6467 49.6708 11.14C49.6708 10.6867 49.4508 10.3333 49.0108 10.08C48.5841 9.82667 47.8174 9.58 46.7108 9.34C45.4708 9.08667 44.4774 8.78 43.7308 8.42C42.9974 8.06 42.4574 7.62 42.1108 7.1C41.7774 6.56667 41.6108 5.91333 41.6108 5.14C41.6108 4.28667 41.8441 3.52667 42.3108 2.86C42.7908 2.19333 43.4574 1.67333 44.3108 1.3C45.1641 0.913332 46.1508 0.719999 47.2708 0.719999C48.2708 0.719999 49.2308 0.866666 50.1508 1.16C51.0841 1.45333 51.8241 1.84667 52.3708 2.34L51.3708 4.56C50.0774 3.61333 48.7174 3.14 47.2908 3.14C46.4774 3.14 45.8374 3.3 45.3708 3.62C44.9041 3.92667 44.6708 4.35333 44.6708 4.9C44.6708 5.22 44.7574 5.48667 44.9308 5.7C45.1174 5.9 45.4174 6.08 45.8308 6.24C46.2574 6.4 46.8574 6.56667 47.6308 6.74C49.4441 7.14 50.7441 7.65333 51.5308 8.28C52.3308 8.90667 52.7308 9.77333 52.7308 10.88C52.7308 12.2133 52.2174 13.2667 51.1908 14.04C50.1641 14.8 48.7308 15.18 46.8908 15.18ZM59.9828 12.94C60.2895 12.94 60.6095 12.92 60.9428 12.88L60.7828 15.08C60.3961 15.1333 60.0095 15.16 59.6228 15.16C58.1295 15.16 57.0361 14.8333 56.3428 14.18C55.6628 13.5267 55.3228 12.5333 55.3228 11.2V7.44H53.4628V5.18H55.3228V2.3H58.3428V5.18H60.8028V7.44H58.3428V11.18C58.3428 12.3533 58.8895 12.94 59.9828 12.94ZM66.6372 4.94C68.1039 4.94 69.1839 5.28667 69.8772 5.98C70.5839 6.67333 70.9372 7.74667 70.9372 9.2V15H68.0772V13.54C67.8772 14.0467 67.5439 14.4467 67.0772 14.74C66.6105 15.02 66.0639 15.16 65.4372 15.16C64.7705 15.16 64.1639 15.0267 63.6172 14.76C63.0839 14.4933 62.6572 14.12 62.3372 13.64C62.0305 13.16 61.8772 12.6267 61.8772 12.04C61.8772 11.32 62.0572 10.7533 62.4172 10.34C62.7905 9.92667 63.3839 9.62667 64.1972 9.44C65.0105 9.25333 66.1239 9.16 67.5372 9.16H68.0572V8.8C68.0572 8.21333 67.9305 7.8 67.6772 7.56C67.4239 7.32 66.9839 7.2 66.3572 7.2C65.8772 7.2 65.3439 7.28667 64.7572 7.46C64.1705 7.63333 63.6105 7.87333 63.0772 8.18L62.2772 6.16C62.8372 5.81333 63.5239 5.52667 64.3372 5.3C65.1639 5.06 65.9305 4.94 66.6372 4.94ZM66.0972 13.08C66.6839 13.08 67.1572 12.8867 67.5172 12.5C67.8772 12.1 68.0572 11.5867 68.0572 10.96V10.62H67.7172C66.6372 10.62 65.8772 10.7067 65.4372 10.88C65.0105 11.0533 64.7972 11.3667 64.7972 11.82C64.7972 12.18 64.9172 12.48 65.1572 12.72C65.4105 12.96 65.7239 13.08 66.0972 13.08ZM80.2152 7.42L78.5152 7.6C77.6752 7.68 77.0818 7.92 76.7352 8.32C76.3885 8.70667 76.2152 9.22667 76.2152 9.88V15H73.1952V5.18H76.0952V6.84C76.5885 5.70667 77.6085 5.08667 79.1552 4.98L80.0352 4.92L80.2152 7.42ZM87.6391 12.94C87.9457 12.94 88.2657 12.92 88.5991 12.88L88.4391 15.08C88.0524 15.1333 87.6657 15.16 87.2791 15.16C85.7857 15.16 84.6924 14.8333 83.9991 14.18C83.3191 13.5267 82.9791 12.5333 82.9791 11.2V7.44H81.1191V5.18H82.9791V2.3H85.9991V5.18H88.4591V7.44H85.9991V11.18C85.9991 12.3533 86.5457 12.94 87.6391 12.94ZM98.7734 10.66H92.3734C92.4668 11.4467 92.7201 12.02 93.1334 12.38C93.5601 12.7267 94.1601 12.9 94.9334 12.9C95.4401 12.9 95.9401 12.82 96.4334 12.66C96.9401 12.4867 97.4001 12.2467 97.8134 11.94L98.6134 13.96C98.1334 14.3333 97.5468 14.6267 96.8534 14.84C96.1734 15.0533 95.4868 15.16 94.7934 15.16C93.1401 15.16 91.8334 14.7067 90.8734 13.8C89.9268 12.88 89.4534 11.6333 89.4534 10.06C89.4534 9.06 89.6601 8.17333 90.0734 7.4C90.4868 6.62667 91.0601 6.02667 91.7934 5.6C92.5268 5.16 93.3601 4.94 94.2934 4.94C95.6668 4.94 96.7534 5.38667 97.5534 6.28C98.3668 7.17333 98.7734 8.38667 98.7734 9.92V10.66ZM94.3734 7.02C93.8001 7.02 93.3401 7.20667 92.9934 7.58C92.6601 7.94 92.4534 8.46667 92.3734 9.16H96.2334C96.1934 8.45333 96.0134 7.92 95.6934 7.56C95.3868 7.2 94.9468 7.02 94.3734 7.02ZM107.618 7.42L105.918 7.6C105.078 7.68 104.484 7.92 104.138 8.32C103.791 8.70667 103.618 9.22667 103.618 9.88V15H100.598V5.18H103.498V6.84C103.991 5.70667 105.011 5.08667 106.558 4.98L107.438 4.92L107.618 7.42Z" fill="white"/>
</svg>
